<?xml version="1.0" encoding="utf-8"?>
<!-- Generator: Adobe Illustrator 27.5.0, SVG Export Plug-In . SVG Version: 6.00 Build 0)  -->
<svg version="1.1" id="Layer_1" xmlns="http://www.w3.org/2000/svg" xmlns:xlink="http://www.w3.org/1999/xlink" x="0px" y="0px"
	 viewBox="0 0 3000 2000" style="enable-background:new 0 0 3000 2000;" xml:space="preserve">
<rect style="fill:#FFFFFF;" width="3000" height="2000"/>
<g>
	<path style="fill:#EDF4FF;" d="M2796.817,1524.336c0,0-2662.153,0.322-2662.262,0.214c-70.341-157.214,9.4-277.364,176.23-413.186
		c124.907-101.892,356.892-137.115,296.383-352.244c-71.421-253.595,266.021-336.58,602.815-257.377
		c263.428,61.913,505.894,281.689,688.5,207.998c353.865-142.842,523.505-79.202,621.507-38.034
		c87.902,36.43,178.202,104.156,241.277,174.069c60.848,64.678,110.003,157.117,125.229,266.887
		C2905.205,1254.576,2864.111,1402.912,2796.817,1524.336z"/>
	<path style="fill:#B8E0AF;" d="M377.472,1523.307c0,0,22.502-64.415,96.072-68.668c73.57-4.252,114.451-61.402,190.473-48.035
		c76.022,13.366,81.732,69.488,113.741,84.973c32.009,15.483,193.108-20.092,254.218-3.221
		c61.11,16.872,89.743-25.122,146.583-43.282c56.839-18.16,94.121,6.736,135.015,35.069s98.132-3.188,95.625,41.835
		L377.472,1523.307z"/>
	<rect x="540.21" y="932.861" style="opacity:0.4;fill:#CBD9EF;" width="912.537" height="531.77"/>
	<path style="opacity:0.4;fill:#C4D2E8;" d="M1446.895,1197.354v266.06H541.46V931.644h206.821
		C903.21,1167.35,1224.513,1200.322,1446.895,1197.354z"/>
	<path style="fill:#B8E0AF;" d="M1545.763,1520.048h-69.401c-3.719-3.154,2.573-10.319,9.148-10.801
		c2.856-0.216,6.467,0.383,10.593,1.254c0.954-12.686,6.409-69.71,26.963-67.419c23.112,2.566,0,25.113-6.533,38.463
		c-4.841,9.887-9.945,24.066-12.278,30.757c1.876,0.407,3.819,0.807,5.804,1.172c3.063-9.407,14.461-41.044,28.955-39.202
		c17.019,2.159,10.178,14.845-1.884,22.374c-8.851,5.537-19.717,13.407-24.88,17.209c4.374,0.714,8.94,1.195,13.572,1.088
		C1537.711,1514.66,1543.514,1518.163,1545.763,1520.048z"/>
	<path style="fill:#B8E0AF;" d="M183.714,1516.016c-3.768-5.919-15.107-21.281-30.21-19.247
		c-16.455,2.215,18.174,13.064,28.776,19.292c-2.354,0.032-4.379-0.156-5.865-0.686c-7.088-2.526-19.227,2.318-23.107,4.019h67.476
		c-0.466-1.614-1.682-4.25-4.825-6.171c-1.108-0.678-3.335-0.771-6.21-0.553c4.012-4.729,6.798-19.839-4.371-15.951
		c-8.159,2.841-8.137,12.072-7.336,17.534c-1.736,0.272-3.496,0.547-5.235,0.797c-3.359-17.122-15.242-67.302-39.326-68.64
		c-24.416-1.356,20.705,52.041,35.727,69.118C187.283,1515.761,185.43,1515.936,183.714,1516.016z"/>
	<g>
		<g>
			<g>
				<path style="fill:#CC621B;" d="M1293.506,1379.345l-0.401,17.734l-2.801,123.608c-0.017,0.771-0.647,1.385-1.417,1.385l0,0
					c-1.326,0-2.415-1.047-2.466-2.371l-4.544-117.032l-0.902-23.324H1293.506z"/>
				<path style="fill:#B25414;" d="M1293.506,1379.345l-0.401,17.734c-3.534,1.179-7.711,2.966-11.228,5.59l-0.902-23.324H1293.506z
					"/>
			</g>
			<g>
				<path style="fill:#CC621B;" d="M729.964,1379.345l-0.401,17.734l-2.801,123.608c-0.018,0.771-0.646,1.385-1.417,1.385l0,0
					c-1.326,0-2.415-1.047-2.466-2.371l-4.544-117.032l-0.902-23.324H729.964z"/>
				<path style="fill:#B25414;" d="M729.964,1379.345l-0.401,17.734c-3.534,1.179-7.711,2.966-11.228,5.59l-0.902-23.324H729.964z"
					/>
			</g>
		</g>
		<path style="fill:#E58638;" d="M1323.269,1385.293H687.671c-4.013,0-7.295-3.283-7.295-7.294v-36.68
			c0-4.013,3.283-7.296,7.295-7.296h635.597c4.012,0,7.295,3.283,7.295,7.296v36.68
			C1330.563,1382.01,1327.281,1385.293,1323.269,1385.293z"/>
	</g>
	<g>
		<path style="fill:#8E3900;" d="M2874.395,1323.686c-0.323,1.836-0.757,3.674-1.188,5.4c-1.621,6.699-3.35,13.291-5.079,19.666
			c-0.108,0.539-0.323,1.08-0.432,1.621c-0.218,0.648-0.325,1.295-0.541,1.943c-1.944,7.242-3.997,14.154-6.05,20.963
			c-2.811,9.186-5.727,17.938-8.645,26.471c-0.865,2.486-1.729,4.971-2.594,7.35c-1.296,3.566-2.594,7.129-3.782,10.588
			c0,0,0,0,0,0.107c-1.188,2.811-2.16,5.404-3.241,8.105c-1.619,4.322-3.35,8.428-4.969,12.533
			c-2.486,6.051-4.971,11.885-7.348,17.289c-0.54,1.295-1.08,2.484-1.622,3.672c-1.081,2.486-2.161,4.865-3.133,7.133h-153.433
			v-142.842H2874.395z"/>
		<rect x="1874.149" y="1323.662" style="fill:#2B478B;" width="284.464" height="142.814"/>
		<path style="fill:#233862;" d="M1924.271,1437.766c0-46.557,37.745-84.303,84.304-84.303c46.562,0,84.307,37.746,84.307,84.303
			c0,46.561-37.745,84.307-84.307,84.307C1962.016,1522.072,1924.271,1484.326,1924.271,1437.766z"/>
		<path style="fill:#466AA5;" d="M2052.804,1437.771c0,9.85-3.226,18.947-8.671,26.289c-8.047,10.887-20.979,17.938-35.556,17.938
			c-24.428,0-44.235-19.799-44.235-44.227c0-18.963,11.93-35.137,28.688-41.428c4.837-1.813,10.075-2.807,15.547-2.807
			C2033.005,1393.537,2052.804,1413.338,2052.804,1437.771z"/>
		<path style="fill:#ED7D2B;" d="M2877.202,1062.311L1709.718,845.776c-40.653,0-74.165,28.05-83.306,64.617
			c-4.068,14.412-48.39,178.482-54.89,231.226c-5.295,39.762-7.347,83.955-7.889,126.744c-0.377,64.076,1.523,99.229,4.863,160.021
			c1.513,21.502,19.232,38.143,40.734,38.143h298.219c-0.108-0.324-0.108-0.648-0.216-0.975c-2.485-8.859-3.673-18.15-3.673-27.768
			c0-40.408,22.798-75.525,56.292-93.139c14.156-7.455,30.148-11.67,47.111-11.996c18.045-0.217,35.117,4.109,50.027,11.996
			c33.172,17.396,56.078,51.865,56.619,91.625c0.107,10.158-1.189,19.988-3.674,29.281c-0.107,0.326-0.217,0.65-0.217,0.975h163.589
			h409.295h21.719c-2.593-9.186-4.106-18.801-4.106-28.742c0-58.889,47.758-106.535,106.536-106.535
			c22.693,0,43.762,7.02,60.942,19.123C2870.856,1334.494,2911.829,1208.504,2877.202,1062.311z"/>
		<path style="fill:#FFB93E;" d="M1755.606,1363.664h-52.097c-5.228,0-9.503-4.277-9.503-9.504l0,0c0-5.227,4.275-9.502,9.503-9.502
			h52.097c5.228,0,9.506,4.275,9.506,9.502l0,0C1765.112,1359.387,1760.834,1363.664,1755.606,1363.664z"/>
		<path style="fill:#F99746;" d="M1563.634,1268.363c0.542-42.789,2.594-86.982,7.889-126.744c0.996-8.09,2.887-18.807,5.381-31.191
			c239.95-0.541,978.39,1.063,1309.469,1.838c10.283,77.555,1.498,145.74-7.218,189.377h-296.542v-0.049H1563.655
			C1563.574,1291.287,1563.563,1280.33,1563.634,1268.363z"/>
		<path style="fill:#FFB93E;" d="M1585.24,1401.834h-22.331c-4.831,0-8.785-3.953-8.785-8.785v-62.27
			c0-4.83,3.954-8.783,8.785-8.783h22.331c4.832,0,8.785,3.953,8.785,8.783v62.27
			C1594.025,1397.881,1590.072,1401.834,1585.24,1401.834z"/>
		<path style="fill:#233862;" d="M2886.495,1112.66c-15.084-108.68-63.793-201.561-125.23-266.884h-704.485
			c-0.021-0.017-0.045-0.032-0.066-0.048h-347.018c-29.724,0-56.513,15.441-71.431,38.145c-7.794,0.272-16.745,1.111-25.961,3.032
			c-34.343,7.153-56.037,26.104-62.98,54.898l-4.181-0.399c-5.574-0.532-10.638,3.255-11.702,8.753l-18.376,94.898
			c-1.22,6.297,3.252,12.273,9.637,12.883l26.481,2.529c5.974,0.57,11.28-3.811,11.851-9.785l9.144-95.78
			c0.548-5.747-3.489-10.861-9.115-11.752c5.989-25.95,20.979-45.422,52.274-51.992c6.906-1.451,13.592-1.988,19.667-2.01
			c-6.12,7.869-12.59,35.146-24.011,79.268h381.817v144.245H2886.495z"/>
		<path style="fill:#38568A;" d="M1614.78,953.716c4.616-17.942,8.348-32.451,11.612-43.323h507.856h677.459
			c28.508,44.053,51.372,95.308,65.164,151.855l0.33,0.063c3.514,14.826,6.234,29.439,8.311,43.758
			c0.333,2.195,0.676,4.387,0.982,6.592h-0.07h-1309.97C1585.425,1067.52,1602.981,998.559,1614.78,953.716z"/>
		<path style="fill:#38568A;" d="M1790.754,958.456c0.575-9.268-6.788-17.101-16.075-17.101h-73.583
			c-47.364,0-79.982,37.52-85.76,85.76l-17.084,209.545c-0.585,7.176,5.079,13.322,12.279,13.322h150.832
			c6.359,0,11.62-4.947,12.015-11.293L1790.754,958.456z"/>
		<path style="fill:#466AA5;" d="M1776.361,971.773l-12.583,184.325l-4.402,64.494c0,8.303-6.725,15.027-15.021,15.027h-117.532
			c-20.644,0-14.502-30.617-12.84-49.939l12.989-151.494c0-2.924,0.151-5.813,0.451-8.662c4.003-38.728,34.586-68.845,71.721-68.845
			h44.06C1752.142,956.678,1776.361,956.678,1776.361,971.773z"/>
		<path style="fill:#5F87C1;" d="M2052.804,1437.771c0,9.85-3.226,18.947-8.671,26.289c-49.105-13.541-52.356-50.723-51.103-67.717
			c4.837-1.813,10.075-2.807,15.547-2.807C2033.005,1393.537,2052.804,1413.338,2052.804,1437.771z"/>
		<path style="fill:#233862;" d="M2861.104,1373.279c-2.811,9.186-5.727,17.938-8.645,26.471c-0.865,2.486-1.729,4.971-2.594,7.35
			c-1.296,3.566-2.594,7.129-3.782,10.588c0,0,0,0,0,0.107c-1.188,2.811-2.16,5.404-3.241,8.105
			c-1.619,4.322-3.35,8.428-4.969,12.533c-2.486,6.051-4.971,11.885-7.348,17.289c-0.54,1.295-1.08,2.484-1.622,3.672
			c-1.081,2.486-2.161,4.865-3.133,7.133c-2.161,4.752-4.321,9.291-6.376,13.506c-2.053,4.213-3.996,8.213-5.834,11.887
			c-6.915,13.611-12.75,24.852-15.344,29.715c-32.739-3.244-59.859-25.285-70.773-55.107c-3.24-8.969-4.969-18.691-4.969-28.742
			c0-46.568,37.709-84.277,84.277-84.277C2827.394,1353.508,2846.407,1360.963,2861.104,1373.279z"/>
		<path style="fill:#466AA5;" d="M2846.084,1417.688c0,0,0,0,0,0.107c-1.188,2.811-2.16,5.404-3.241,8.105
			c-1.619,4.322-3.35,8.428-4.969,12.533c-2.486,6.051-4.971,11.885-7.348,17.289c-0.54,1.295-1.08,2.484-1.622,3.672
			c-1.081,2.486-2.161,4.865-3.133,7.133c-2.161,4.752-4.321,9.291-6.376,13.506c-3.996,1.295-8.211,1.945-12.643,1.945
			c-13.396,0-25.391-5.943-33.494-15.451c-6.699-7.672-10.697-17.721-10.697-28.742c0-19.016,11.885-35.117,28.633-41.49
			c4.863-1.73,10.051-2.811,15.559-2.811C2823.935,1393.484,2838.847,1403.318,2846.084,1417.688z"/>
		<path style="fill:#5F87C1;" d="M2846.084,1417.688c0,0,0,0,0,0.107c-1.188,2.811-2.16,5.404-3.241,8.105
			c-1.619,4.322-3.35,8.428-4.969,12.533c-2.486,6.051-4.971,11.885-7.348,17.289c-0.54,1.295-1.08,2.484-1.622,3.672
			c-36.305-16.096-38.789-47.758-37.71-63.1c4.863-1.73,10.051-2.811,15.559-2.811
			C2823.935,1393.484,2838.847,1403.318,2846.084,1417.688z"/>
		<path style="fill:#3F6098;" d="M1763.778,1156.098l-4.402,64.494c0,8.303-6.725,15.027-15.021,15.027h-117.532
			c-20.644,0-14.502-30.617-12.84-49.939l12.989-151.494c0-2.924,0.151-5.813,0.451-8.662
			C1647.907,1073.26,1688.934,1138.689,1763.778,1156.098z"/>
		<path style="fill:#466AA5;" d="M2183.275,1086.793h-219.154c-9.242,0-16.805-7.561-16.805-16.803V954.25
			c0-9.241,7.563-16.803,16.805-16.803h219.154c9.24,0,16.803,7.561,16.803,16.803v115.74
			C2200.078,1079.232,2192.516,1086.793,2183.275,1086.793z"/>
		<path style="fill:#466AA5;" d="M1907.724,1086.793h-98.184c-6.408,0-11.649-5.242-11.649-11.648V949.096
			c0-6.406,5.241-11.648,11.649-11.648h98.184c6.406,0,11.648,5.242,11.648,11.648v126.048
			C1919.372,1081.551,1914.13,1086.793,1907.724,1086.793z"/>
		<path style="fill:#466AA5;" d="M2466.96,1086.793h-219.153c-9.242,0-16.803-7.561-16.803-16.803V954.25
			c0-9.241,7.561-16.803,16.803-16.803h219.153c9.241,0,16.804,7.561,16.804,16.803v115.74
			C2483.764,1079.232,2476.201,1086.793,2466.96,1086.793z"/>
		<path style="fill:#466AA5;" d="M2746.802,1086.793h-219.155c-9.241,0-16.802-7.561-16.802-16.803V954.25
			c0-9.241,7.561-16.803,16.802-16.803h219.155c9.24,0,16.801,7.561,16.801,16.803v115.74
			C2763.603,1079.232,2756.042,1086.793,2746.802,1086.793z"/>
		<path style="fill:#466AA5;" d="M2807.835,1086.838c-9.293,0-16.855-7.564-16.855-16.857V954.257
			c0-9.29,7.563-16.853,16.855-16.853h20.107c20.961,37.558,37.867,79.494,48.93,124.843l0.33,0.063
			c1.955,8.246,3.655,16.426,5.145,24.527H2807.835z"/>
	</g>
	<g>
		<g>
			<path style="fill:#233862;" d="M1262.467,1522.072l2.126-227.746c0,0,1.836-16.402,16.146-16.402
				c15.269,0,16.146,16.402,16.146,16.402s-0.22,1.418-1.786,1.418c-1.641,0-1.912-1.418-1.912-1.418s-0.676-12.646-12.448-12.646
				c-11.032,0-12.448,12.646-12.448,12.646v227.746H1262.467z"/>
			<path style="fill:#233862;" d="M1270.253,1522.072h-9.496l0.846-9.93c0,0-0.082-1.379,1.837-1.457
				c1.783-0.072,5.304-0.327,5.639,0.752C1269.373,1512.384,1270.253,1522.072,1270.253,1522.072z"/>
		</g>
		<path style="fill:#FFB27D;" d="M1280.855,1265.854l0.649,3.258c0,0,16.102-0.061,19.866,17.194c0,0,1.022,7.18-4.155,5.647
			c-5.177-1.533-4.371-5.196-11.701-7.204c-7.331-2.007-12.107-3.545-13.218-8.881l-1.198-5.938L1280.855,1265.854z"/>
		<path style="fill:#739CF3;" d="M1223.918,1124.645c0,0,4.259,16.759,7.934,32.08c1.479,6.172,2.861,12.108,3.837,16.623
			c0.996,4.638,1.561,7.777,1.344,8.127c-3.194,5.185,2.641,36.8,7.256,48.279c0.407,1.02,0.968,2.211,1.642,3.535
			c6.455,12.654,23.639,37.489,23.639,37.489s4.848,0.507,8.019-0.689c2.645-1.002,4.453-4.235,4.453-4.235
			c-1.537-2.475-7.755-31.692-15.755-48.075c-3.423-7.009-8.464-72.03-15.093-80.785
			C1245.663,1129.69,1223.918,1124.645,1223.918,1124.645z"/>
		<path style="fill:#3F6098;" d="M1237.032,1181.475c-3.194,5.185,2.641,36.8,7.256,48.279c0.407,1.02,0.968,2.211,1.642,3.535
			c6.168-27.285-4.054-65.939-4.054-65.939c-2.552,1.01-4.589,3.113-6.188,5.998
			C1236.684,1177.985,1237.249,1181.125,1237.032,1181.475z"/>
		<path style="fill:#0F2949;" d="M1192.339,1496.986c0,0-1.641,24.695,3.023,25.041c0.62,0.045,23.652,0.045,23.652,0.045h29.71
			c0,0-0.5-7.254-9.095-8.752c-8.594-1.497-22.979-7.537-28.186-18.896C1205.967,1482.474,1192.339,1496.986,1192.339,1496.986z"/>
		<path style="fill:#163560;" d="M1147.654,1496.986c0,0-1.64,24.695,3.023,25.041c0.62,0.045,23.653,0.045,23.653,0.045h29.71
			c0,0-0.5-7.254-9.095-8.752c-8.595-1.497-22.98-7.537-28.186-18.896C1161.282,1482.474,1147.654,1496.986,1147.654,1496.986z"/>
		<path style="fill:#2B478B;" d="M1190.933,1437.464c-0.732,10.443-2.221,23.87-1.691,35.975
			c0.744,16.924,1.279,31.196,1.279,31.196c11.159,3.796,31.633-0.808,31.633-0.808s7.262-42.771,13.245-76.914
			c2.684-15.299,4.91-28.533,5.742-34.783c2.691-20.199-2.865-127.601-2.865-127.601s-30.194-19.353-42.669-9.375
			c-12.471,9.975-20.15,19.725-0.05,129.012C1197.081,1392.455,1192.57,1414.073,1190.933,1437.464z"/>
		<path style="fill:#233862;" d="M1190.933,1437.464c-0.732,10.443-2.078,27.154-1.548,39.259
			c10.497-11.109,31.184-34.546,46.014-49.81c2.684-15.299,4.91-28.533,5.742-34.783c2.691-20.199-2.865-127.601-2.865-127.601
			s-30.194-19.353-42.669-9.375c-12.471,9.975-20.15,19.725-0.05,129.012C1197.081,1392.455,1192.57,1414.073,1190.933,1437.464z"/>
		<path style="fill:#2B478B;" d="M1210.989,1266.713c0,0-2.712,107.513-6.949,127.446c-4.236,19.934-26.35,111.185-26.35,111.185
			s-20.729,1.888-31.562-2.752c0,0,0.689-42.262,4.365-67.091c3.434-23.197,9.592-44.404,8.708-52.786
			c-11.643-110.508-3.237-119.639,9.966-128.627C1182.373,1245.098,1210.989,1266.713,1210.989,1266.713z"/>
		<path style="fill:#FFB27D;" d="M1170.012,1276.125c0,0,7.183,14.412-6.624,25.426c0,0-5.986,4.095-6.903-1.227
			c-0.918-5.32,0.141-3.467-1.304-10.929c-1.445-7.461,0.403-15.178,4.696-18.536L1170.012,1276.125z"/>
		<path style="fill:#FFB27D;" d="M1230.554,1100.284c0,0-8.291,12.601-6.637,24.358l-12.267,29.557l-22.132-33.835
			c0,0,11.691-12.726,16.055-30.074L1230.554,1100.284z"/>
		<path style="fill:#FFB27D;" d="M1234.189,1111.035c0,0-30.188,1.307-30.736-16.815c-0.549-18.122-8.708-30.178,13.872-31.771
			c18.567-1.31,24.74,6.434,26.394,12.438S1245.377,1110.063,1234.189,1111.035z"/>
		<path style="fill:#739CF3;" d="M1160.286,1271.894c6.485,0.604,15.415,1.352,26.248,2.032c2.165,0.136,4.402,0.271,6.714,0.399
			c32.71,1.831,45.713-3.466,45.713-3.466s0.867-0.701,0.592-4.542c-1.421-19.782-5.623-25.625-5.115-29.385
			c1.138-8.448,21.636-77.396,21.636-77.396s0.395-21.78-23.828-32.002c-2.498-1.058-5.251-1.987-8.294-2.758
			c-1.061,2.819-3.969,7.527-11.407,6.661c-10.996-1.282-18.826-7.765-22.183-11.09c-0.608,0-0.848,0.019-0.848,0.019
			c-0.821,2.315-1.46,4.731-2.029,7.187c-1.986,8.561-3.148,17.567-8.402,24.301c-5.185,6.648-9.622,13.204-13.409,19.615
			c-3.151,5.336-5.854,10.575-8.165,15.679C1136.066,1234.541,1152.654,1271.178,1160.286,1271.894z"/>
		<path style="fill:#3F6098;" d="M1160.286,1271.894c6.485,0.604,15.415,1.352,26.248,2.032
			c3.16-53.243-18.535-104.381-18.535-104.381c-0.817,0.572-1.591,1.216-2.324,1.924c-3.779,3.671-6.411,9.119-8.165,15.679
			C1151.047,1211.289,1156.456,1250.512,1160.286,1271.894z"/>
		<path style="fill:#2B478B;" d="M1243.919,1093.75c0,0,5.877,23.314-4.096,26.598c-9.973,3.283-36.448,0.652-36.438-27.931
			c0,0,13.894,8.286,20.531,8.077c6.637-0.21,10.92-4.04,17.054-1.048C1240.971,1099.446,1243.214,1099.297,1243.919,1093.75z"/>
		<path style="fill:#739CF3;" d="M1189.518,1120.364c0,0-21.102,0.474-32.25,14.98c-8.542,11.116-17.574,70.759-17.574,79.739
			s9.618,58.542,15.003,63.927c0,0,3.485,0.898,8.136,0c4.937-0.954,7.844-3.809,7.844-3.809s-2.679-55.179-2.679-60.354
			c0-7.493,23.427-53.361,23.427-53.361S1203.575,1139.657,1189.518,1120.364z"/>
		<path style="fill:#2B478B;" d="M1204.872,1068.085c0.507-1.851,2.787-2.822,2.787-2.822c17.002-7.404,29.423,0.698,29.423,0.698
			c-10.42-13.988-35.57-11.052-40.868,1.565c-8.649,20.601,7.172,24.891,7.172,24.891s15.798-6.639,6.65-14.962
			c-3.032-2.757-4.498-5.208-4.983-7.342l0,0l0,0C1204.891,1069.401,1204.836,1068.726,1204.872,1068.085z"/>
	</g>
	<g>
		<g>
			<polygon style="fill:#E58638;" points="289.128,1523.344 266.63,1523.344 275.536,1015.985 276.873,939.889 287.523,939.889 
				287.716,1008.346 			"/>
			<path style="fill:#CC6E2E;" d="M287.716,1008.346c-3.567,1.771-7.803,4.254-12.18,7.64l1.337-76.096h10.651L287.716,1008.346z"/>
		</g>
		<g>
			<path style="fill:#F99746;" d="M337.688,951.685H218.07c-3.759,0-6.835-3.076-6.835-6.835V776.245
				c0-3.759,3.076-6.835,6.835-6.835h119.618c3.759,0,6.835,3.076,6.835,6.835V944.85
				C344.523,948.609,341.447,951.685,337.688,951.685z"/>
			<path style="fill:#EDF4FF;" d="M330.639,943.166H225.12c-3.369,0-6.125-2.756-6.125-6.125V783.667
				c0-3.368,2.756-6.125,6.125-6.125h105.519c3.368,0,6.124,2.756,6.124,6.125v153.375
				C336.763,940.41,334.007,943.166,330.639,943.166z"/>
			<g>
				<path style="fill:#2B478B;" d="M249.577,834.367c-5.752-0.944-10.656,3.96-9.712,9.712c0.571,3.483,3.381,6.294,6.865,6.865
					c5.753,0.944,10.656-3.959,9.712-9.712C255.871,837.748,253.061,834.938,249.577,834.367z M248.154,846.396
					c-2.066,0-3.741-1.675-3.741-3.741c0-2.066,1.675-3.741,3.741-3.741c2.066,0,3.741,1.675,3.741,3.741
					C251.895,844.722,250.22,846.396,248.154,846.396z"/>
				<path style="fill:#2B478B;" d="M305.998,834.37c-5.757-0.954-10.671,3.95-9.726,9.71c0.572,3.484,3.382,6.294,6.867,6.864
					c5.75,0.94,10.645-3.951,9.711-9.7C312.283,837.76,309.479,834.947,305.998,834.37z M305.156,846.351
					c-2.533,0.393-4.689-1.767-4.292-4.3c0.247-1.575,1.54-2.858,3.116-3.094c2.526-0.378,4.662,1.769,4.275,4.29
					C308.014,844.821,306.729,846.107,305.156,846.351z"/>
				<path style="fill:#2B478B;" d="M316.163,805.771h-72.824c-1.775,0-3.433,0.889-4.414,2.369l-7.82,11.788
					c-0.695,1.048-1.066,2.277-1.066,3.535v14.827c0,2.412,1.956,4.367,4.368,4.367l0,0c1.646,0,3.036-1.139,3.458-2.73
					c1.205-4.556,5.356-7.913,10.289-7.913c4.817,0,8.885,3.198,10.198,7.587c0.545,1.822,2.24,3.056,4.142,3.056h28.316
					c1.647,0,3.039-1.14,3.461-2.732c1.206-4.555,5.357-7.911,10.289-7.911c4.856,0,8.95,3.249,10.229,7.693
					c0.508,1.765,2.165,2.95,4.002,2.95h3.131c2.098,0,3.798-1.701,3.798-3.798V822.54c0-0.771-0.137-1.534-0.404-2.256
					l-4.063-10.971C320.464,807.184,318.433,805.771,316.163,805.771z M250.376,819.014c0,1.246-1.011,2.257-2.257,2.257h-9.48
					c-1.468,0-2.39-1.586-1.663-2.861l4.251-7.454c0.848-1.485,2.424-2.403,4.132-2.403h2.756c1.248,0,2.26,1.012,2.26,2.261
					V819.014z M271.915,819.014c0,1.246-1.011,2.257-2.258,2.257h-13.033c-1.247,0-2.257-1.011-2.257-2.257v-8.203
					c0-1.247,1.011-2.258,2.257-2.258h13.033c1.247,0,2.258,1.011,2.258,2.258V819.014z M293.491,819.014
					c0,1.246-1.011,2.257-2.257,2.257h-13.036c-1.247,0-2.257-1.011-2.257-2.257v-8.203c0-1.247,1.011-2.258,2.257-2.258h13.036
					c1.247,0,2.257,1.011,2.257,2.258V819.014z M315.202,819.014c0,1.246-1.011,2.257-2.257,2.257h-13.032
					c-1.247,0-2.258-1.011-2.258-2.257v-8.203c0-1.247,1.011-2.258,2.258-2.258h13.032c1.247,0,2.257,1.011,2.257,2.258V819.014z"/>
			</g>
			<g>
				<path style="fill:#2B478B;" d="M252.507,870.968h8.431c2.076,0,3.71,0.57,4.749,1.608c0.83,0.831,1.245,1.842,1.245,3.139
					c0,2.05-1.09,3.191-2.387,3.918c2.102,0.804,3.399,2.023,3.399,4.514c0,3.32-2.698,4.981-6.797,4.981h-8.639V870.968z
					 M260.082,878.31c1.764,0,2.88-0.571,2.88-1.972c0-1.193-0.934-1.868-2.62-1.868h-3.944v3.84H260.082z M261.146,885.625
					c1.764,0,2.828-0.623,2.828-2.023c0-1.219-0.908-1.971-2.957-1.971h-4.619v3.995H261.146z"/>
				<path style="fill:#2B478B;" d="M270.952,881.345v-10.377h3.996v10.273c0,2.957,1.478,4.488,3.917,4.488
					c2.439,0,3.917-1.479,3.917-4.358v-10.403h3.996v10.247c0,5.5-3.087,8.198-7.964,8.198
					C273.935,889.413,270.952,886.689,270.952,881.345z"/>
				<path style="fill:#2B478B;" d="M289.605,886.481l2.361-2.828c1.634,1.349,3.347,2.205,5.422,2.205
					c1.634,0,2.62-0.649,2.62-1.765c0-1.011-0.622-1.53-3.658-2.309c-3.658-0.935-6.019-1.946-6.019-5.603
					c0-3.295,2.646-5.474,6.356-5.474c2.646,0,4.903,0.83,6.745,2.309l-2.076,3.009c-1.608-1.116-3.191-1.79-4.722-1.79
					c-1.53,0-2.335,0.701-2.335,1.634c0,1.193,0.779,1.583,3.918,2.387c3.684,0.96,5.759,2.283,5.759,5.499
					c0,3.607-2.75,5.63-6.667,5.63C294.56,889.387,291.784,888.427,289.605,886.481z"/>
				<path style="fill:#2B478B;" d="M242.921,917.613l2.361-2.829c1.634,1.35,3.347,2.206,5.421,2.206
					c1.635,0,2.621-0.648,2.621-1.765c0-1.011-0.622-1.53-3.658-2.309c-3.658-0.935-6.019-1.945-6.019-5.604
					c0-3.294,2.646-5.473,6.356-5.473c2.646,0,4.903,0.83,6.745,2.308l-2.076,3.01c-1.608-1.115-3.191-1.79-4.721-1.79
					c-1.531,0-2.335,0.701-2.335,1.634c0,1.193,0.778,1.582,3.917,2.387c3.684,0.959,5.76,2.283,5.76,5.499
					c0,3.607-2.75,5.63-6.668,5.63C247.876,920.518,245.1,919.559,242.921,917.613z"/>
				<path style="fill:#2B478B;" d="M264.61,905.783h-5.526v-3.685h15.047v3.685h-5.526v14.477h-3.995V905.783z"/>
				<path style="fill:#2B478B;" d="M275.609,911.179c0-5.163,4.074-9.392,9.677-9.392c5.603,0,9.625,4.177,9.625,9.392
					c0,5.163-4.074,9.392-9.677,9.392C279.63,920.571,275.609,916.394,275.609,911.179z M290.734,911.179
					c0-3.114-2.283-5.708-5.5-5.708s-5.448,2.542-5.448,5.708c0,3.114,2.283,5.707,5.5,5.707
					C288.503,916.886,290.734,914.344,290.734,911.179z"/>
				<path style="fill:#2B478B;" d="M298.465,902.098h7.419c4.333,0,6.953,2.569,6.953,6.331c0,4.204-3.269,6.382-7.342,6.382h-3.035
					v5.449h-3.995V902.098z M305.625,911.257c1.998,0,3.165-1.193,3.165-2.803c0-1.79-1.245-2.75-3.243-2.75h-3.087v5.552H305.625z"
					/>
			</g>
		</g>
		<g>
			<path style="fill:#E58638;" d="M300.017,1522.074h-44.276l3.168-61.33c0.177-3.422,3.002-6.105,6.428-6.105h24.686
				c3.648,0,6.658,2.858,6.846,6.502L300.017,1522.074z"/>
			<path style="fill:#CC6E2E;" d="M276.163,1522.074h-20.421l3.194-61.835c0.162-3.138,2.754-5.601,5.897-5.601h6.368
				c5.193,0,9.3,4.4,8.943,9.581L276.163,1522.074z"/>
		</g>
	</g>
	<g>
		<path style="fill:#E58638;" d="M552.123,886.847l-0.326,20.359l-9.704,612.21c-0.023,1.475-1.225,2.656-2.7,2.656h-0.722
			c-2.909,0-5.285-2.322-5.351-5.229l-13.444-590.949l-0.886-39.047H552.123z"/>
		<path style="fill:#CC621B;" d="M552.123,886.847l-0.326,20.359c-8.864,2.773-21.554,8.253-31.921,18.688l-0.886-39.047H552.123z"
			/>
	</g>
	<g>
		<path style="fill:#E58638;" d="M1463.46,886.847l-0.325,20.359l-9.704,612.21c-0.023,1.475-1.225,2.656-2.7,2.656h-0.723
			c-2.908,0-5.284-2.322-5.351-5.229l-13.444-590.949l-0.885-39.047H1463.46z"/>
		<path style="fill:#CC621B;" d="M1463.46,886.847l-0.325,20.359c-8.864,2.773-21.554,8.253-31.921,18.688l-0.885-39.047H1463.46z"
			/>
	</g>
	<g>
		<path style="fill:#ED7D2B;" d="M1507.41,810.333v72.129c0,1.37-0.38,2.665-1.048,3.784c-1.455,2.439-4.264,4.102-7.479,4.102
			H489.724c-4.688,0-8.518-3.551-8.518-7.886v-72.129c0-4.336,3.829-7.886,8.518-7.886h1009.159
			C1503.58,802.447,1507.41,805.997,1507.41,810.333z"/>
		<path style="fill:#F99746;" d="M1507.41,810.333v72.129c0,1.37-0.38,2.665-1.048,3.784c-3.035,1.395-6.125,2.765-9.268,4.102
			h-426.119c-104.443-25.438-208.452-59.899-284.795-87.902h712.703C1503.58,802.447,1507.41,805.997,1507.41,810.333z"/>
	</g>
	<path style="fill:#B8E0AF;" d="M423.419,1480.143c0,0-28.404-43.383-45.947-35.069
		C359.928,1453.387,423.419,1480.143,423.419,1480.143z"/>
	<path style="fill:#B8E0AF;" d="M431.355,1471.77c0,0-1.671-31.332-10.86-30.078C411.306,1442.943,431.355,1471.77,431.355,1471.77z
		"/>
	<g>
		<path style="fill:#233862;" d="M983.739,1500.203c1.501,5.057,8.429,8.429,9.364,14.611c0.777,5.128,3.491,8.32,6.319,9.261
			h17.956c0.429-0.995,1.403-4.264-3.654-5.367c-5.993-1.311-8.255-8.575-7.88-15.319c0.158-2.827,0.082-6.052-0.054-8.842
			c-0.19-3.86-0.506-6.895-0.506-6.895l-12.741-2.997l-1.337,1.719l-1.283,1.653
			C989.922,1488.027,982.238,1495.146,983.739,1500.203z"/>
		<path style="fill:#233862;" d="M1085.592,1524.075h43.515c-0.451-1.561-1.919-4.241-6.732-5.024
			c-6.716-1.094-18.353-4.992-20.947-13.579c-0.082-0.277-0.158-0.56-0.223-0.849c-2.061-9.179-17.048,2.812-17.048,2.812
			s-0.043,0.37-0.108,0.995C1083.699,1511.779,1082.819,1522.531,1085.592,1524.075z"/>
		<path style="fill:#BC3F3F;" d="M1120.59,1278.576c0,0-2.276,28.399-4.952,62.537c-3.636,46.373-8.009,103.334-8.442,114.125
			c-0.748,18.738-3.749,48.711-3.749,48.711s-7.115,7.121-21.357,4.119c0,0-12.69-42.787-16.315-88.059
			c-0.057-0.741-0.113-1.488-0.169-2.236c-3.372-46.086-8.616-143.131-8.616-143.131L1120.59,1278.576z"/>
		<path style="fill:#A53232;" d="M1120.59,1278.576c0,0-2.276,28.399-4.952,62.537l-49.863,78.896
			c-0.057-0.741-0.113-1.488-0.169-2.236c-3.372-46.086-8.616-143.131-8.616-143.131L1120.59,1278.576z"/>
		<path style="fill:#BC3F3F;" d="M1110.195,1281.949c0,0-41.028,102.851-68.005,151.185c-26.977,48.335-35.407,61.823-35.407,61.823
			s-15.456-6.183-16.861-10.397c0,0,10.316-93.312,28.382-116.059c10.209-12.853,22.2-51.426,22.762-64.914
			s3.653-40.185,3.653-40.185L1110.195,1281.949z"/>
	</g>
	<path style="fill:#FFB27D;" d="M1056.214,1123.448c0,0,27.76,13.603,43.764,8.556c0,0-3.939-5.047-10.833-8.803
		c0.554-3.262,0.984-6.094,1.231-8.494c0.677-5.539,0.677-8.679,0.677-8.679l-10.709-8.555l-10.157-8.188
		C1070.986,1112.307,1056.214,1123.448,1056.214,1123.448z"/>
	<path style="fill:#A8D29F;" d="M1041.585,1268.671c-0.062,1.723,3.57,3.692,5.17,4.431c11.88,5.294,22.959,8.986,35.516,10.219
		c14.834,1.538,32.376-1.848,38.408-1.725c0.616,0,1.17-0.245,1.663-0.677c0.431-0.308,0.738-18.466,0.431-41.301
		c0-0.924,0-1.848-0.062-2.771v-0.308c-0.124-8.925-0.431-18.28-0.862-27.637c-0.862-20.559-2.462-40.379-5.17-51.335
		c-3.263-12.926-10.649-21.481-17.357-27.698l-5.54-4.925c-5.54,1.108-11.387,0.801-17.235-2.092
		c-6.401-3.14-13.405-6.661-14.513-5.8c-8.371,6.217-13.924,20.325-16.939,38.176c-1.724,10.279-2.586,21.79-2.524,33.854
		c0,4.433,0.123,8.987,0.369,13.48c1.477,24.374,0,45.548-0.861,57.797C1041.831,1263.931,1041.646,1266.7,1041.585,1268.671z"/>
	<path style="fill:#82B378;" d="M1042.078,1260.36c134.492-0.185,24.805-100.269,24.805-100.269l-21.789-4.862
		c-1.724,10.279-2.586,21.79-2.524,33.854c0,4.433,0.123,8.987,0.369,13.48C1044.416,1226.938,1042.939,1248.111,1042.078,1260.36z"
		/>
	<path style="fill:#FFB27D;" d="M1136.468,1219.129l4.979-1.597c0,0,3.484-11.526,15.261-6.367c0,0,4.782,2.535,2.676,5.535
		s-1.721,1.42-4.599,5.741c-2.878,4.322-7.433,6.372-11.063,4.738l-4.137,0.119L1136.468,1219.129z"/>
	<path style="fill:#A8D29F;" d="M1056.208,1123.418c0,0-30.458,48.438,1.986,104.412c10.127,17.473,86.622,0.866,86.622,0.866
		s2.981-5.386-5.001-11.061c0,0-50.929-8.621-57-10.066c-5.386-1.282-1.795-50.78-7.951-65.143S1056.208,1123.418,1056.208,1123.418
		z"/>
	<path style="fill:#ED985F;" d="M1070.001,1098.089c0,0,7.017,12.987,20.374,16.618c0.677-5.539,0.677-8.679,0.677-8.679
		l-10.709-8.555L1070.001,1098.089z"/>
	<path style="fill:#FFB27D;" d="M1095.936,1105.653c0,0-26.482,4.399-28.968-12.134c-2.486-16.534-7.578-27.102,9.225-30.609
		c16.803-3.509,21.044,2.306,23.216,7.622C1101.581,1075.85,1102.761,1104.083,1095.936,1105.653z"/>
	<path style="fill:#233862;" d="M1067.143,1094.66c0,0,0.534-22.148,24.664-25.703c16.527-2.434,6.519-16.244,4.629-18.432
		c0,0-12.634,2.41-25.565,5.249C1043.729,1061.731,1064.274,1091.366,1067.143,1094.66z"/>
	<path style="fill:#2E3552;" d="M2957.545,1527.144H42.455c-1.82,0-3.31-1.49-3.31-3.31v-1.13c0-1.821,1.49-3.311,3.31-3.311
		h2915.09c1.82,0,3.31,1.489,3.31,3.311v1.13C2960.854,1525.653,2959.365,1527.144,2957.545,1527.144z"/>
</g>
</svg>
